<?xml version="1.0" standalone="no"?>
<!DOCTYPE svg PUBLIC "-//W3C//DTD SVG 20010904//EN"
 "http://www.w3.org/TR/2001/REC-SVG-20010904/DTD/svg10.dtd">
<svg version="1.0" xmlns="http://www.w3.org/2000/svg"
 width="464.916477pt" height="475.579900pt" viewBox="0 0 464.916477 475.579900"
 preserveAspectRatio="xMidYMid meet">
<metadata>
Created by potrace 1.16, written by Peter Selinger 2001-2019
</metadata>
<g transform="translate(-8.543560,483.831824) scale(0.100000,-0.100000)"
fill="#000000" stroke="none">
<path d="M2080 4833 c-443 -46 -827 -353 -960 -769 l-23 -72 -60 -6 c-153 -18
-355 -101 -493 -204 -317 -236 -490 -614 -454 -994 23 -237 104 -433 259 -621
l69 -84 -28 -80 c-119 -335 -78 -693 112 -985 247 -379 702 -575 1131 -487
l101 20 25 -33 c99 -129 251 -253 395 -323 613 -297 1332 16 1553 675 l18 54
80 13 c427 70 784 396 894 818 94 357 -2 749 -248 1018 l-53 57 21 53 c158
391 72 853 -218 1169 -153 166 -374 288 -616 339 -88 19 -333 16 -425 -5 l-74
-17 -25 33 c-228 298 -618 469 -981 431z m309 -314 c145 -37 341 -156 408
-247 l22 -30 -117 -68 c-64 -37 -153 -88 -197 -114 -44 -26 -204 -118 -355
-205 -151 -87 -286 -168 -298 -179 -52 -46 -51 -33 -62 -697 -6 -343 -13 -625
-15 -627 -1 -2 -96 50 -209 115 l-206 118 2 655 3 655 31 87 c92 257 289 446
549 528 139 43 298 46 444 9z m1191 -424 c96 -23 254 -104 334 -172 126 -106
225 -261 268 -422 30 -109 30 -297 1 -405 -12 -43 -25 -82 -30 -86 -4 -4 -201
105 -438 242 -542 314 -537 311 -591 305 -32 -3 -177 -79 -581 -304 -296 -165
-541 -298 -545 -296 -5 2 -8 109 -8 237 l0 233 293 168 c270 156 368 213 707
410 119 69 184 93 295 109 54 8 229 -3 295 -19z m-2483 -1561 c15 -21 187
-130 550 -348 290 -175 532 -321 536 -326 7 -6 -368 -230 -400 -238 -10 -3
-320 173 -1008 571 -142 82 -142 81 -216 175 -71 89 -132 210 -159 317 -25 98
-28 270 -6 375 62 297 301 544 600 620 l71 18 5 -567 c5 -563 5 -566 27 -597z
m2345 540 c216 -124 465 -267 553 -317 109 -63 177 -109 212 -145 101 -102
177 -236 214 -381 28 -107 28 -287 -1 -396 -75 -289 -287 -506 -576 -590 -47
-14 -88 -25 -90 -25 -2 0 -5 255 -6 568 -3 565 -3 567 -25 598 -15 20 -187
130 -544 345 -287 173 -528 319 -536 324 -11 8 33 38 189 128 112 64 206 117
210 117 5 0 185 -102 400 -226z m-818 -258 l206 -119 0 -238 0 -237 -210 -121
-209 -121 -203 117 c-112 64 -206 122 -210 127 -4 6 -8 113 -8 237 0 197 2
228 16 240 24 20 398 238 405 236 4 -1 99 -56 213 -121z m635 -366 l200 -115
1 -634 c0 -703 1 -694 -66 -839 -106 -232 -320 -407 -571 -469 -100 -24 -285
-22 -388 6 -153 40 -349 158 -414 249 l-21 30 183 105 c848 489 796 457 822
507 14 27 19 191 31 903 4 208 10 377 14 375 5 -2 99 -55 209 -118z m-429
-719 l0 -239 -42 -25 c-24 -13 -277 -159 -563 -325 -381 -220 -538 -305 -585
-318 -92 -26 -319 -26 -410 0 -457 131 -710 577 -583 1029 8 31 20 57 26 57
10 0 287 -158 732 -416 216 -126 221 -128 280 -128 56 0 68 5 195 77 273 155
935 525 943 526 4 0 7 -107 7 -238z"/>
</g>
</svg>
