<?xml version="1.0" standalone="no"?>
<!DOCTYPE svg PUBLIC "-//W3C//DTD SVG 20010904//EN"
 "http://www.w3.org/TR/2001/REC-SVG-20010904/DTD/svg10.dtd">
<svg version="1.0" xmlns="http://www.w3.org/2000/svg"
 width="67.166066pt" height="66.929930pt" viewBox="-14 -14 122.860626 122.527124"
 preserveAspectRatio="xMidYMid meet">
<metadata>
Created by potrace 1.16, written by Peter Selinger 2001-2019
</metadata>
<g transform="translate(-10.006775,104.574699) scale(0.100000,-0.100000)"
fill="#000000" stroke="none">
<path d="M340 1030 c-11 -11 -20 -27 -20 -36 0 -8 34 -75 75 -147 69 -120 85
-157 69 -157 -3 0 -57 38 -119 85 -114 85 -159 103 -171 70 -11 -28 25 -62
160 -154 128 -87 153 -107 144 -116 -2 -3 -85 2 -183 10 -182 15 -216 11 -185
-19 11 -11 60 -16 188 -22 95 -4 175 -10 177 -15 6 -9 -29 -34 -120 -84 -109
-60 -155 -94 -155 -115 0 -38 47 -21 175 61 129 84 167 97 120 41 -75 -89
-185 -237 -185 -249 0 -24 36 -14 67 20 16 17 65 78 107 134 74 100 98 122 91
86 -51 -250 -57 -294 -45 -308 15 -18 36 -20 46 -4 4 6 13 75 21 152 7 78 16
143 19 146 7 7 13 -1 101 -136 53 -81 72 -103 90 -103 40 0 29 46 -33 138 -30
46 -53 87 -49 90 7 7 6 8 116 -80 46 -38 87 -68 91 -68 25 0 -4 37 -104 132
-62 58 -110 109 -107 112 3 3 67 -8 142 -26 112 -26 141 -30 162 -20 32 15 32
27 0 48 -19 12 -60 19 -155 23 -115 6 -152 13 -139 25 2 2 72 19 154 38 132
29 150 36 153 54 2 12 -3 24 -11 27 -8 3 -72 -6 -142 -19 -70 -14 -130 -23
-132 -20 -8 8 29 67 96 154 67 89 77 113 59 141 -24 39 -53 26 -124 -56 -36
-43 -78 -95 -93 -115 -30 -43 -56 -51 -48 -15 3 12 15 77 28 145 20 112 21
125 6 139 -8 9 -22 13 -31 10 -21 -8 -32 -59 -46 -214 -7 -73 -16 -133 -20
-133 -5 0 -14 15 -20 33 -6 17 -44 97 -83 176 -78 156 -100 178 -137 141z"/>
</g>
</svg>
