<svg viewBox="0 0 1880 704" xmlns="http://www.w3.org/2000/svg"><path fill="#FEFEFE" d="M0 0h1880v704H0z"/><path fill="#040404" d="M716 66h2l-6 10-3 4-2 2q-19 27-36 55l-2 3q-15 26-22 54l-1 2c-9 34-3 73 4 106l5 29 1 4v14a232 232 0 0 1-64 167l-1 2-9 8h-2v2l-11 9-2 1q-23 18-50 30l-2 1q-27 11-56 15h-3q-22 3-46 1h-2q-30-3-57-13l-2-1q-27-10-52-27v-2l3-1 37-17 17-9 3-1 2-1q10-1 19 3a184 184 0 0 0 44 7q49 3 91-22l3-2 16-11 4-2v-2l3-3a152 152 0 0 0 34-40c22-36 26-83 17-123q-2-19-14-34-7-4-14-3-9 3-16 9l-7 5-11 9-19 13-15 12-47 34-15 12-47 35-25 18q0-3 2-5l2-2 2-3 3-2 11-11 8-9 65-64 2-2 2-2 3-4h2v-2h2v-2h2v-2h2v-2h2v-2h2v-2h2v-2h2v-2h2l1-2 4-5 2-2 2-2 2-3 8-7 51-51 2-2 9-10 19-19L707 76l2-2 5-6h2zm330 165q27 26 34 63v5h-50l-4-2-2-6q-8-26-32-41-20-9-42-9h-4q-36-1-62 25-14 16-21 36l-1 3a151 151 0 0 0 10 119l1 2q17 28 49 37 16 4 33 3h3q34-2 58-27 20-24 22-55h-92v-42h140l-1 37v2c-2 34-11 67-35 93h-2v2q-24 22-56 28l-2 1a164 164 0 0 1-48 3q-57 0-98-39a151 151 0 0 1-38-74c-10-44-4-94 19-133q9-14 21-26l2-2c49-53 147-49 198-3m317 50q47-2 82 31l7 9 1 2 10 16 1 3a138 138 0 0 1-1 106l-2 3a97 97 0 0 1-52 50 123 123 0 0 1-101-8l-3-1-13-11-5-4-10-13-1-2c-19-30-22-67-15-101q9-39 41-62l3-2 3-2q25-14 55-14M462 129h2a218 218 0 0 1 96 39v2l-9 4-3 1-47 22-3 2q-7 3-15-1l-24-7-3-1q-31-4-60 2l-3 1c-27 6-57 19-77 39l-4 2v2l-4 4h-2l-1 2-4 5c-24 27-40 66-41 103v2q0 18 2 34l1 4q9 47 44 81l-8 10-2 1-5 5-3 3-11 9-12 11-35 31-2 3-3 2-4 2v2l-3 3-13 11-4 2v2l-3 3-19 16-12 11-35 32-2 1-3 3q-4 5-6 4v2h-2l6-9 9-10 14-15 3-4h2l1-2 5-6 16-17a264 264 0 0 0 42-62v-2c11-29 4-57-7-84q-6-18-9-37v-2q-5-34 0-68v-3l8-31q13-40 38-73l2-2 9-11 5-6q27-28 62-45l3-2c40-21 89-27 133-20"/><path fill="#FBFBFB" d="m1391 325 3 1q22 14 28 40c6 23 5 53-7 74q-12 22-36 28l-18 1h-2q-22-3-36-19c-15-17-18-43-17-65q1-12 5-24l1-3q9-23 32-35 24-9 47 2"/><path fill="#040404" d="M1512 204h44v296l-1 3h-42l-4-1V207q-1-4 3-3m-327 81 56 1h3l6 1v32l-1 7h-76v176l-6 1h-38l-3-1v-9l-1-97v-60c0-13 0-13 3-18l6-5 3-2 2-2 14-12 1-2 4-3c8-8 16-7 27-7m484 0h4l11 1h28l-2 4-1 1-10 10-2 2-20 23-10 11-17 19-2 2h-2l-1 2-4 6-2 2-3 2-6 6-2 4h-2c-2 6-2 6 0 9l8 9 1 2 11 14 2 2 27 36 35 45 2 6h-41l-3 1c-8 0-8 0-12-3l-2-3-2-2-1-2-1-2-2-2-1-2-10-13-23-33-5-7-2-2-12-16-2-3-5-6-1-2-1-4-27-1q0-5 5-9l2-2 28-32 1-2 31-36 2-2 3-3 8-10 2-2 6-7 3-4q7-9 19-7"/><path fill="#A0A0A0" d="M1557 203v195l2 1v1h12l4 1h6l5 1-1 2-17-1h-6l-5-1v102h-48q-2-3-1-6V206l1-3h13l24-1h5zm-48 2v297l6 1h38l3-1V204h-44z"/><path fill="#CECECE" d="M1556 203h1v195l2 1v1h12l4 1h6l5 1-1 2-17-1h-6l-5-1v102h-1z"/><path fill="#B2B2B2" d="m1556 399 3 1h9l7 1h7l4 1-1 2-29-1z"/><path fill="silver" d="m894 256 2 1-19 19q-1-4 3-6l1-2 2-2 2-2z"/><path fill="#ACACAC" d="m722 58 3 1-9 13 2-6-2-1 1-2h3v-3h2z"/><path fill="#A5A5A5" d="m358 426 2 3-4 2v2l-5 2 2-4 3-3z"/></svg>