<?xml version="1.0" standalone="no"?>
<!DOCTYPE svg PUBLIC "-//W3C//DTD SVG 20010904//EN"
 "http://www.w3.org/TR/2001/REC-SVG-20010904/DTD/svg10.dtd">
<svg version="1.0" xmlns="http://www.w3.org/2000/svg"
 width="181.243879pt" height="174.160961pt" viewBox="0 0 302.073132 290.268269"
 preserveAspectRatio="xMidYMid meet">
<metadata>
Created by potrace 1.16, written by Peter Selinger 2001-2019
</metadata>
<g transform="translate(-8.786442,299.000000) scale(0.100000,-0.100000)"
fill="#000000" stroke="none">
<path d="M2530 2413 c-851 -855 -1267 -1277 -1250 -1267 8 4 198 144 422 311
630 467 584 435 625 435 53 0 84 -39 114 -143 20 -72 24 -106 24 -234 0 -176
-13 -233 -81 -371 -102 -208 -284 -362 -509 -430 -79 -24 -106 -27 -225 -27
-110 0 -150 4 -215 23 -44 12 -90 24 -101 27 -14 3 -83 -24 -188 -73 -130 -60
-164 -80 -155 -90 21 -25 255 -134 340 -158 226 -64 437 -61 661 10 360 114
654 425 753 799 22 79 28 131 32 250 5 134 3 166 -20 285 -71 370 -60 533 52
765 45 91 177 298 267 418 20 26 34 47 32 47 -1 0 -262 -260 -578 -577z"/>
<path d="M1470 2655 c-568 -93 -970 -566 -970 -1140 0 -143 19 -249 72 -405
39 -114 43 -133 42 -220 -2 -182 -59 -281 -336 -582 -140 -152 -223 -251 -177
-212 17 15 863 772 933 835 5 4 -16 35 -47 69 -62 69 -138 211 -163 305 -8 33
-18 107 -21 165 -20 373 218 721 572 839 172 57 361 61 511 11 32 -11 66 -20
75 -20 9 0 74 27 145 61 71 33 145 67 164 76 l35 14 -30 25 c-76 61 -259 138
-406 170 -103 22 -295 27 -399 9z"/>
</g>
</svg>
