<svg xmlns="http://www.w3.org/2000/svg" width="940" height="352"><path fill="#FEFEFE" d="M0 0h940v352H0z"/><path fill="#020202" d="M359 32c0 4.1-1.7 5.4-4.3 8.6-21.9 27.7-36.1 56.9-32.4 92.9q1.4 8.5 3.6 17c7.1 31.5 1.2 63-15.5 90.4q-4.5 7-10.4 13c-2 2.1-2 2.1-4 4.6-3.7 4.5-8.4 8-13 11.5l-2.4 1.9c-12 8.8-25.3 14.3-39.6 18.1l-3.3 1c-29.1 7.6-58.4-.9-84-14.8q-3-2.3-5.7-5.2l24.3-11.8 2-1c7.4-3.5 13.5-1 20.9 1a85 85 0 0 0 60.6-8.8q10-6 18.2-14.4l1.9-1.9a82 82 0 0 0 20.5-56.8v-3.1c-.2-11-2-21.4-7.4-31.2-2.5-2-3.8-2-7-2-5.2.9-8.8 4-12.7 7.2l-5.1 3.9-2.6 2-12 8.8q-11.6 8.6-23.1 17.4-7.2 5.5-14.5 10.7-13.1 9.4-25.8 19.3L180 215l-2-1 2.7-2.7 61.9-61.8 2-2c3-3 6-6 8.7-9.3q6.6-7.5 13.9-14.5l11.1-11.1 8.5-8.5zm160.1 79.7A59 59 0 0 1 540 146v4h-27l-4-11a39 39 0 0 0-24.2-17.6 48 48 0 0 0-36 6.3L446 130h-2l-.8 1.8a30 30 0 0 1-4 5.6 62 62 0 0 0-11.5 39v2.9a62 62 0 0 0 4.2 22.8A47 47 0 0 0 452 228a58 58 0 0 0 36.8 3.1 42 42 0 0 0 25.6-23.1c2.5-5.6 3.7-9.8 4.6-16h-46v-21h70c0 44.6 0 44.6-15 63l-1.7 2.1c-10 11.3-26.7 16.7-41.3 17.9-23 1.1-43-1.5-61-17a78 78 0 0 1-23.1-53.4c-.8-23.5 3.7-45.4 19.2-63.8a77 77 0 0 1 99-8.1"/><path fill="#030303" d="M721 154c12 12.4 16 26.7 16.4 43.6a61 61 0 0 1-17 43.2A55 55 0 0 1 708 249l-3.4 1.8a66 66 0 0 1-48.7-2.4c-14.7-7.7-21-20.3-25.9-35.4a65 65 0 0 1 3-41l1-2.6a49 49 0 0 1 29-26.4c20-7.1 42.1-2.8 58 11"/><path fill="#020202" d="m279 83 1 2-24 11.6c-6 2.8-9.5 3.8-16 2.4l-5-2c-19.6-6.2-42.6-1.6-60.4 7.7a88 88 0 0 0-41.6 52.6 85 85 0 0 0 8.8 63A63 63 0 0 0 154 235c-1.1 3.3-1.8 4-4.4 6.1l-9.5 8.3-2.5 2.3-2.6 2.3-5 4.5-2.5 2.3-20 18-28 25.1-10.9 9.7-3.2 3C64 318 64 318 62 318l-1 3-2-1c12-14.1 12-14.1 17.4-19.4q3.5-3.6 6.7-7.4 2-2.4 4.2-4.6A89 89 0 0 0 110 251l.6-2c2.2-10.6 0-19.4-3.4-29.4l-1.1-3.4-1.1-3.2a115 115 0 0 1 6-86 121 121 0 0 1 23-31l1.9-2A103 103 0 0 1 184 67l3-1c29.5-9.8 67.4-1.3 92 17"/><path fill="#050505" d="M754 101h24l1 98 18.3-21.1 12.5-14.2q5.7-6.4 11-13.2c6.3-7.3 6.3-7.3 10.3-8h7.3l4 .2h3.9l9.7.3-2.8 3.8-1.6 2.1q-3.1 4-6.8 7.3l-5 5.4a403 403 0 0 1-12.8 14.1l-5.7 6.2-2.4 2.7-2.2 2.3q-2.3 2.8-3.7 6.1l22 29c12.8 16.6 12.8 16.6 18.3 24l2.2 2.9c1.5 2.1 1.5 2.1 1.5 3.1-26.2 2.2-26.2 2.2-31.7-2.3a52 52 0 0 1-5.3-8.7q-3-5.3-6.8-10.2l-9.8-13.8-1.8-2.5-3.5-4.7-1.6-2.2-1.4-1.9C794 204 794 204 793 201h-15v51h-24z"/><path fill="#FDFDFD" d="M696 162.8a33 33 0 0 1 14 17.2l1.1 2.7a50 50 0 0 1 1.3 16.2c0 11.1-3.2 20.5-10.9 28.7-7 6.2-13.1 7-22.2 6.7-7.8-.7-13-4.7-18.3-10.3a39 39 0 0 1-7.3-26v-2.9c0-10.5 2.2-20 9.5-27.8 9-8.4 21.7-10.4 32.8-4.6"/><path fill="#030303" d="M586.6 142.4h2.6l2.8.1h2.9l15.1.3 15 .2v20h-38v89h-24a2712 2712 0 0 1-1-51.8l-.4-21.9c-.5-16.5-.5-16.5 4.2-22.1q3.9-4 8.5-7 2.5-1.8 4.8-4c3-2.2 4-2.8 7.5-2.8"/><path fill="#1A1A1A" d="M359 32c0 3.7-1 4.7-3.2 7.6l-1.9 2.3c-1.9 2.1-1.9 2.1-3.8 3-2.5 1.3-4.2 3-6.2 5l-2.5 2.4-2.7 2.7-10.5 10.6-8 8L252 142c0-3 0-3 1.7-5l2.4-2.4 2.7-2.8 14.8-14.7 9-9 36.5-36.3z"/></svg>